<?xml version="1.0" encoding="UTF-8"?>
<svg id="Capa_1" data-name="Capa 1" xmlns="http://www.w3.org/2000/svg" viewBox="0 0 611.47 585.44">
  <defs>
    <style>
      .cls-1 {
        fill: #0b427a;
      }

      .cls-2 {
        fill: #064377;
      }
    </style>
  </defs>
  <path class="cls-2" d="M364.65,52c.58-25.28-23.85-50.95-58-52-22.46,4.58-39.16,23.14-41,45-1.63,19.3,8.57,38.14,26,48,2.6,13.38,5.7,40.68-8,68-5.83,11.62-15.11,30.13-34,34-12.12,2.48-22.75-2.17-28-5-5.33-6-10.67-12-16-18,7-27.83-3.14-56.56-25-72-25.29-17.86-64.76-16.86-86,10-20.74,26.23-14.12,64.53,9,85,18.12,16.04,45.01,19.92,69,10,2.76.04,15.86.54,26,11,.58.6,12.49,13.22,10,27-4.93,27.32-62.14,35.13-69,36-17.33,2.2-31.98.73-42-1-.87-1.44-17.3-27.67-46.5-27.5-23.05.14-48.83,16.7-51,43-2.2,26.59,20.85,49.41,46,51,18.62,1.18,36.92-9.38,47-27,12.7,1.12,108.79,7.94,180.5-66.5,60.75-63.06,61.66-140.5,61.5-156.5,17.2-9.16,29.11-25.33,29.5-42.5ZM159.15,169.5c-11.25,9.44-29.1,6.26-38-5-7.72-9.77-8.47-25.33,1-35,10.08-10.29,27.13-9.2,37,0,11.19,10.43,11.86,30.05,0,40Z"/>
  <path class="cls-2" d="M245.48,533.12c-.72,25.28,23.57,51.08,57.71,52.32,22.48-4.46,39.28-22.92,41.25-44.77,1.73-19.29-8.36-38.19-25.74-48.14-2.52-13.39-5.48-40.71,8.37-67.96,5.89-11.58,15.28-30.05,34.19-33.81,12.13-2.42,22.74,2.3,27.97,5.15,5.3,6.03,10.6,12.06,15.9,18.09-7.15,27.79,2.83,56.58,24.6,72.14,25.19,18,64.67,17.22,86.05-9.53,20.88-26.12,14.48-64.45-8.53-85.05-18.03-16.14-44.9-20.17-68.94-10.38-2.76-.06-15.86-.62-25.94-11.14-.58-.6-12.41-13.29-9.85-27.05,5.08-27.29,62.33-34.79,69.2-35.62,17.34-2.1,31.98-.55,41.99,1.23.86,1.45,17.14,27.77,46.35,27.75,23.06,0,48.92-16.43,51.24-42.72,2.34-26.58-20.58-49.52-45.72-51.25-18.62-1.28-36.97,9.18-47.15,26.74-12.7-1.19-108.75-8.54-180.86,65.51-61.09,62.73-62.43,140.16-62.36,156.16-17.25,9.06-29.25,25.17-29.73,42.34ZM451.63,416.75c11.3-9.38,29.14-6.1,37.97,5.21,7.67,9.81,8.33,25.37-1.19,34.99-10.14,10.24-27.18,9.05-37-.2-11.13-10.49-11.69-30.11.22-40Z"/>
  <path class="cls-1" d="M509.15,86.5c-23.52-20.79-59.19-15.95-81,2-21.25,17.48-29.42,47.47-20,75-77.33,76.33-154.67,152.67-232,229-24.41-10.93-51.9-8.24-71,7-25.82,20.61-34.53,62.78-12,90,18.79,22.7,53.31,27.76,79,13,27.12-15.58,39.19-50.24,27-81,78.33-76.33,156.67-152.67,235-229,30.68,11.91,64.88,1.43,82-24,16.11-23.92,16.93-60.85-7-82ZM156.15,471.5c-11.83,9.01-29.68,4.83-38-7-7.18-10.21-7.04-25.84,3-35,10.66-9.73,27.61-7.71,37,2,10.62,10.99,10.35,30.59-2,40ZM487.15,153.5c-10.3,10.68-27.72,11.94-39,3-13.72-10.87-14-33.34-1-45,10.53-9.44,27.91-10.11,39,0,12.02,10.96,12.12,30.46,1,42Z"/>
</svg>